<?xml version="1.0" encoding="utf-8"?>
<!-- Generator: Adobe Illustrator 26.5.0, SVG Export Plug-In . SVG Version: 6.00 Build 0)  -->
<svg version="1.1" id="Layer_1" xmlns="http://www.w3.org/2000/svg" xmlns:xlink="http://www.w3.org/1999/xlink" x="0px" y="0px"
	 viewBox="0 0 150 150" style="enable-background:new 0 0 150 150;" xml:space="preserve">
<style type="text/css">
	.st0{fill:#000100;}
	.st1{fill:#FFFFFF;}
</style>
<path class="st0" d="M122.5,109.4h24.9v17c0,2.3-1.9,4.2-4.2,4.2h-16.6c-2.3,0-4.2-1.9-4.2-4.2L122.5,109.4L122.5,109.4L122.5,109.4
	z"/>
<path class="st0" d="M23.3,130.6H6.7c-2.3,0-4.2-1.9-4.2-4.2v-17h25v17C27.5,128.7,25.6,130.6,23.3,130.6z"/>
<path class="st0" d="M127.4,52.7l4.6-4.3c1.2-1.1,2.8-1.8,4.5-1.8h8.4c2.8,0,5,2.3,5,5l0,0c0,2.3-1.5,4.3-3.7,4.9l-18.9,5.2
	L127.4,52.7L127.4,52.7z"/>
<path class="st0" d="M22.6,52.7l-4.6-4.3c-1.2-1.1-2.8-1.8-4.5-1.8H5c-2.8,0-5,2.3-5,5l0,0C0,54,1.5,56,3.7,56.6l18.9,5.2L22.6,52.7
	L22.6,52.7z"/>
<path class="st0" d="M18.5,54.1c0,0,10.5-25.5,16.5-29.8C40.9,20,65.5,20,75,20s34.1,0,40.1,4.3c6,4.3,16.5,29.8,16.5,29.8l11.4,13
	c3,3.4,4.6,7.8,4.6,12.3v32.8c0,3.2-2.6,5.8-5.8,5.8H8.3c-3.2,0-5.8-2.6-5.8-5.8V79.5c0-4.5,1.6-8.9,4.6-12.3
	C7.1,67.2,18.5,54.1,18.5,54.1z"/>
<path class="st1" d="M25.3,56.3c16.5-1.7,33.2-2.6,49.7-2.6s33.2,0.9,49.7,2.6c-5.5-11.9-12.4-24.9-13.8-26.1
	c-0.7-0.5-5.6-2.9-35.8-2.9s-35.2,2.4-35.9,2.9C37.7,31.4,30.8,44.3,25.3,56.3z"/>
<path class="st1" d="M12.2,79.6c0,5.1,4.2,8.5,9.2,9.2c6.5,1,12.1-1.3,12.1-6.4S30,70.4,21.5,70.4C16.4,70.4,12.2,74.5,12.2,79.6z"
	/>
<path class="st1" d="M137.8,79.6c0,5.1-4.2,8.5-9.2,9.2c-6.5,1-12.1-1.3-12.1-6.4s3.6-12.1,12.1-12.1
	C133.6,70.4,137.8,74.5,137.8,79.6z"/>
<path class="st1" d="M90.6,102.3H59.4c-0.9,0-1.6-0.7-1.6-1.6v-5.8c0-0.9,0.7-1.6,1.6-1.6h31.1c0.9,0,1.6,0.7,1.6,1.6v5.8
	C92.2,101.5,91.5,102.3,90.6,102.3z"/>
</svg>
