<?xml version="1.0" encoding="utf-8"?>
<!-- Generator: Adobe Illustrator 26.5.0, SVG Export Plug-In . SVG Version: 6.00 Build 0)  -->
<svg version="1.1" id="Layer_1" xmlns="http://www.w3.org/2000/svg" xmlns:xlink="http://www.w3.org/1999/xlink" x="0px" y="0px"
	 viewBox="0 0 150 150" style="enable-background:new 0 0 150 150;" xml:space="preserve">
<style type="text/css">
	.st0{fill:#1D1D1B;}
	.st1{fill:#FFFFFF;}
</style>
<rect x="16.4" y="18.9" class="st0" width="23.2" height="23.2"/>
<rect x="16.4" y="42.1" class="st1" width="23.2" height="23.2"/>
<rect x="16.4" y="65.4" class="st0" width="23.2" height="23.2"/>
<rect x="39.6" y="18.9" class="st1" width="23.2" height="23.2"/>
<rect x="39.6" y="42.1" class="st0" width="23.2" height="23.2"/>
<rect x="39.6" y="65.4" class="st1" width="23.2" height="23.2"/>
<rect x="62.8" y="18.9" class="st0" width="23.2" height="23.2"/>
<rect x="62.8" y="42.1" class="st1" width="23.2" height="23.2"/>
<rect x="62.8" y="65.4" class="st0" width="23.2" height="23.2"/>
<rect x="86" y="18.9" class="st1" width="23.2" height="23.2"/>
<rect x="86" y="42.1" class="st0" width="23.2" height="23.2"/>
<rect x="86" y="65.4" class="st1" width="23.2" height="23.2"/>
<rect x="109.2" y="18.9" class="st0" width="23.2" height="23.2"/>
<rect x="109.2" y="42.1" class="st1" width="23.2" height="23.2"/>
<rect x="109.2" y="65.4" class="st0" width="23.2" height="23.2"/>
<path class="st0" d="M8.8,149L8.8,149c4.8,0,8.8-3.9,8.8-8.8V10.4c0-4.8-3.9-8.8-8.8-8.8l0,0C3.9,1.6,0,5.5,0,10.4v129.9
	C0,145.1,3.9,149,8.8,149z"/>
<path class="st0" d="M141.2,149L141.2,149c4.8,0,8.8-3.9,8.8-8.8V10.4c0-4.8-3.9-8.8-8.8-8.8l0,0c-4.8,0-8.8,3.9-8.8,8.8v129.9
	C132.4,145.1,136.4,149,141.2,149z"/>
<rect x="17.6" y="13.8" class="st0" width="114.9" height="5.1"/>
<rect x="17.6" y="88.6" class="st0" width="114.9" height="5.1"/>
</svg>
