<?xml version="1.0" encoding="utf-8"?>
<!-- Generator: Adobe Illustrator 26.5.0, SVG Export Plug-In . SVG Version: 6.00 Build 0)  -->
<svg version="1.1" id="Layer_1" xmlns="http://www.w3.org/2000/svg" xmlns:xlink="http://www.w3.org/1999/xlink" x="0px" y="0px"
	 viewBox="0 0 150 150" style="enable-background:new 0 0 150 150;" xml:space="preserve">
<style type="text/css">
	.st0{fill:#000100;}
	.st1{fill:#FFFFFF;}
	.st2{fill:#0AFFBA;}
</style>
<path class="st0" d="M150,150C150,150,150,150,150,150L0,150c0,0,0,0,0,0c0-57.2,33.6-74.7,75-74.7c20.7,0,39.5,4.4,53,15.9
	C141.6,102.7,150,121.4,150,150z"/>
<path class="st1" d="M75,98.3c-6.6,0-13.1-1.3-19.1-3.9c-5.9-2.5-11.1-6-15.6-10.5c-4.5-4.5-8.1-9.8-10.5-15.6
	c-2.6-6.1-3.9-12.5-3.9-19.1s1.3-13.1,3.9-19.1c2.5-5.9,6-11.1,10.5-15.6S50,6.3,55.9,3.9C61.9,1.3,68.4,0,75,0s13.1,1.3,19.1,3.9
	c5.9,2.5,11.1,6,15.6,10.5c4.5,4.5,8.1,9.8,10.5,15.6c2.6,6.1,3.9,12.5,3.9,19.1s-1.3,13.1-3.9,19.1c-2.5,5.9-6,11.1-10.5,15.6
	c-4.5,4.5-9.8,8.1-15.6,10.5C88.1,97,81.6,98.3,75,98.3z"/>
<circle class="st0" cx="75" cy="49.2" r="39.6"/>
<path class="st2" d="M0,154.4C0,154.4,0,154.4,0,154.4L0,154.4L0,154.4z"/>
<path class="st2" d="M150,154.4L150,154.4L150,154.4C150,154.4,150,154.4,150,154.4z"/>
</svg>
