<?xml version="1.0" encoding="utf-8"?>
<!-- Generator: Adobe Illustrator 26.5.0, SVG Export Plug-In . SVG Version: 6.00 Build 0)  -->
<svg version="1.1" id="Layer_1" xmlns="http://www.w3.org/2000/svg" xmlns:xlink="http://www.w3.org/1999/xlink" x="0px" y="0px"
	 viewBox="0 0 150 150" style="enable-background:new 0 0 150 150;" xml:space="preserve">
<style type="text/css">
	.st0{fill:#1D1D1B;}
	.st1{fill:#FFFFFF;}
</style>
<circle class="st0" cx="75" cy="75.3" r="75"/>
<g>
	<path class="st1" d="M23.7,68.1c9.2,0.3,30.2,0.2,38-6c3.4-3.4,8.1-5.5,13.3-5.5c4.6,0,8.9,1.7,12.1,4.5l0,0
		c0.4,0.3,0.8,0.7,1.2,1.1c7.8,6.2,28.8,6.3,38,6c7.6-0.3,8.7-5.3,8-8.4C127.4,33.4,103.4,14,75,14S22.6,33.4,15.7,59.7
		C15,62.8,16.1,67.9,23.7,68.1L23.7,68.1z"/>
	<path class="st1" d="M125.3,84.5c-34.9-2.2-38.2,5.8-38.2,5.8v-0.2c-5.2,8.7-5.2,27.8-4.9,36.5c0.3,7.6,5.3,8.7,8.4,8
		c21.1-5.6,37.8-22.1,43.5-43.2C134.5,89,133.9,85,125.3,84.5L125.3,84.5z"/>
	<path class="st1" d="M65.8,125.6c1.6-25.1-2.1-33.9-4.4-36.8c-2.9-2.2-11.6-5.9-36.8-4.4c-8.6,0.5-9.2,4.6-8.9,6.9
		c5.7,20.9,22.2,37.4,43.1,43.1C61.2,134.8,65.3,134.2,65.8,125.6z"/>
</g>
</svg>
